Coordinates
version=1
nRows=21
nColumns=38
inDegrees=no

Units are S.I. units (second, meters, Newtons, ...)
If the header above contains a line with 'inDegrees', this indicates whether rotational values are in degrees (yes) or radians (no).

endheader
time	pelvis_tilt	pelvis_list	pelvis_rotation	pelvis_tx	pelvis_ty	pelvis_tz	hip_flexion_r	hip_adduction_r	hip_rotation_r	knee_angle_r	ankle_angle_r	subtalar_angle_r	mtp_angle_r	hip_flexion_l	hip_adduction_l	hip_rotation_l	knee_angle_l	ankle_angle_l	subtalar_angle_l	mtp_angle_l	lumbar_extension	lumbar_bending	lumbar_rotation	arm_flex_r	arm_add_r	arm_rot_r	elbow_flex_r	pro_sup_r	wrist_flex_r	wrist_dev_r	arm_flex_l	arm_add_l	arm_rot_l	elbow_flex_l	pro_sup_l	wrist_flex_l	wrist_dev_l
2.34	-0.0214644	-0.0580868	-0.075832	0.86106	0.920079	-0.313041	0.144841	0.13846	-0.0497643	-0.798193	0.428864	-0.0349027	0.000146859	0.714588	-0.0415567	0.0135461	-2.0288	-0.139888	-0.0763542	0.000193719	-0.336353	0.0405378	0.148803	-0.027082	-0.588165	0.0940061	1.86822	1.55009	0.0946032	0.0292018	-0.576913	-0.347347	-0.112307	1.93326	2.40082	0.0811501	-0.0356415
2.35	-0.0341551	-0.0322238	-0.0827465	0.860943	0.924972	-0.312177	0.0852627	0.106136	-0.0402719	-0.736628	0.38099	-0.0349027	0.000146859	0.781872	-0.0242565	-0.00692974	-1.97865	-0.120147	-0.0763542	0.000193719	-0.317477	0.00741604	0.160263	0.00952177	-0.596314	0.101534	1.90328	1.54358	0.0946032	0.0292018	-0.611422	-0.347133	-0.122468	1.93765	2.35511	0.0811501	-0.0356415
2.36	-0.047066	-0.00658458	-0.0908227	0.861463	0.930505	-0.311241	0.0254367	0.0727764	-0.0362943	-0.669086	0.31197	-0.0349027	0.000146859	0.840216	-0.0107228	-0.0336825	-1.91528	-0.100835	-0.0763542	0.000193719	-0.297473	-0.0259819	0.173429	0.0387369	-0.603204	0.105206	1.93997	1.53602	0.0946032	0.0292018	-0.645916	-0.347306	-0.131782	1.94436	2.30407	0.0811501	-0.0356415
2.37	-0.0596339	0.0179858	-0.0986724	0.862508	0.936561	-0.31037	-0.0336511	0.0393235	-0.0393732	-0.598289	0.223673	-0.0349027	0.000146859	0.888961	0.000194766	-0.0637356	-1.83972	-0.0822574	-0.0763542	0.000193719	-0.277207	-0.058228	0.18714	0.0612351	-0.609349	0.105943	1.97681	1.5278	0.0946032	0.0292018	-0.679774	-0.347482	-0.14015	1.95281	2.25332	0.0811501	-0.0356415
2.38	-0.0714525	0.0406686	-0.105093	0.863957	0.942972	-0.309694	-0.0908687	0.00684779	-0.0501335	-0.5275	0.119667	-0.0349027	0.000146859	0.927742	0.00969736	-0.0941739	-1.75285	-0.0646848	-0.0763542	0.000193719	-0.257398	-0.0879451	0.200288	0.0778093	-0.615114	0.1046	2.01267	1.51955	0.0946032	0.0292018	-0.712325	-0.34729	-0.147434	1.96242	2.20781	0.0811501	-0.0356415
2.39	-0.0822886	0.0606332	-0.109279	0.865683	0.949522	-0.309311	-0.144985	-0.0234339	-0.0679679	-0.460404	0.00515522	-0.0349027	0.000146859	0.956435	0.0187267	-0.122397	-1.65541	-0.0482594	-0.0763542	0.000193719	-0.238609	-0.113871	0.212031	0.0893018	-0.620699	0.10184	2.04669	1.51195	0.0946032	0.0292018	-0.742929	-0.346382	-0.153549	1.97275	2.17109	0.0811501	-0.0356415
2.4	-0.0920409	0.0770562	-0.110936	0.867545	0.955971	-0.309258	-0.194738	-0.0502253	-0.0909564	-0.400879	-0.11338	-0.0349027	0.000146859	0.975102	0.0277747	-0.14629	-1.54804	-0.0329587	-0.0763542	0.000193719	-0.221242	-0.134927	0.221931	0.0965273	-0.626146	0.0980839	2.07834	1.50564	0.0946032	0.0292018	-0.771025	-0.344434	-0.158529	1.9835	2.14506	0.0811501	-0.0356415
2.41	-0.100701	0.0892009	-0.110277	0.869409	0.962081	-0.309509	-0.238944	-0.0722938	-0.116038	-0.352707	-0.228774	-0.0349027	0.000146859	0.983934	0.0368373	-0.164339	-1.43144	-0.0186214	-0.0763542	0.000193719	-0.205562	-0.150296	0.229981	0.100201	-0.631368	0.0935242	2.10727	1.50115	0.0946032	0.0292018	-0.796152	-0.341149	-0.162564	1.99447	2.13	0.0811501	-0.0356415
2.42	-0.108269	0.0965089	-0.107934	0.871185	0.967649	-0.309982	-0.276657	-0.0886445	-0.139424	-0.319233	-0.333973	-0.0349027	0.000146859	0.983167	0.0454983	-0.175709	-1.3065	-0.00501185	-0.0763542	0.000193719	-0.191785	-0.159518	0.236533	0.100887	-0.636196	0.0881995	2.13329	1.4988	0.0946032	0.0292018	-0.817955	-0.336271	-0.165987	2.00554	2.12482	0.0811501	-0.0356415
2.43	-0.114647	0.0986752	-0.104785	0.872834	0.972527	-0.310535	-0.307306	-0.0986721	-0.157202	-0.303076	-0.422845	-0.0349027	0.000146859	0.973037	0.0530939	-0.180275	-1.17454	0.00808499	-0.0763542	0.000193719	-0.180143	-0.162543	0.242144	0.0989628	-0.640425	0.0820913	2.15627	1.4987	0.0946032	0.0292018	-0.836177	-0.329601	-0.169227	2.01661	2.12749	0.0811501	-0.0356415
2.44	-0.119582	0.0957405	-0.101744	0.874362	0.976623	-0.310998	-0.330759	-0.102242	-0.166078	-0.305934	-0.490944	-0.0349027	0.000146859	0.953796	0.0588965	-0.17861	-1.03745	0.0207659	-0.0763542	0.000193719	-0.170941	-0.15973	0.247379	0.0946241	-0.643846	0.0752126	2.17608	1.5007	0.0946032	0.0292018	-0.850668	-0.321027	-0.172756	2.02759	2.13549	0.0811501	-0.0356415
2.45	-0.122699	0.0881035	-0.0995654	0.875814	0.97989	-0.311243	-0.34731	-0.0997302	-0.164094	-0.328521	-0.536115	-0.0349027	0.000146859	0.925803	0.0622863	-0.171929	-0.897941	0.0329217	-0.0763542	0.000193719	-0.164556	-0.151811	0.252637	0.0878982	-0.646276	0.0676653	2.19264	1.50443	0.0946032	0.0292018	-0.861392	-0.310567	-0.177019	2.03838	2.14625	0.0811501	-0.0356415
2.46	-0.123566	0.076494	-0.0987017	0.877261	0.982309	-0.31122	-0.357563	-0.0920357	-0.151127	-0.370623	-0.558791	-0.0349027	0.000146859	0.889683	0.06289	-0.161965	-0.759585	0.0441802	-0.0763542	0.000193719	-0.161357	-0.139828	0.258028	0.078685	-0.647569	0.0596558	2.20584	1.50933	0.0946032	0.0292018	-0.868438	-0.298402	-0.182383	2.0489	2.15751	0.0811501	-0.0356415
2.47	-0.121812	0.0619318	-0.0992451	0.878783	0.983862	-0.31095	-0.362248	-0.0805626	-0.129022	-0.431244	-0.561855	-0.0349027	0.000146859	0.846522	0.0606845	-0.150765	-0.62678	0.0539068	-0.0763542	0.000193719	-0.161566	-0.12506	0.263332	0.0668068	-0.647621	0.0514711	2.21558	1.51472	0.0946032	0.0292018	-0.872017	-0.284904	-0.189081	2.05913	2.16742	0.0811501	-0.0356415
2.48	-0.117257	0.0456652	-0.100945	0.880445	0.984551	-0.310522	-0.362052	-0.0671587	-0.101261	-0.508784	-0.550023	-0.0349027	0.000146859	0.798018	0.0560612	-0.140392	-0.504548	0.0612947	-0.0763542	0.000193719	-0.165136	-0.108933	0.268025	0.0520592	-0.646379	0.0434216	2.22179	1.52001	0.0946032	0.0292018	-0.872441	-0.270635	-0.197186	2.06911	2.17472	0.0811501	-0.0356415
2.49	-0.109992	0.0290755	-0.103286	0.882267	0.984365	-0.310055	-0.357489	-0.0539722	-0.0722328	-0.601232	-0.528809	-0.0349027	0.000146859	0.746505	0.0498269	-0.132567	-0.398172	0.0655582	-0.0763542	0.000193719	-0.171694	-0.0929035	0.271364	0.0342606	-0.643838	0.0357557	2.22437	1.52484	0.0946032	0.0292018	-0.870054	-0.256322	-0.206583	2.07889	2.17867	0.0811501	-0.0356415
2.5	-0.100392	0.0135633	-0.105587	0.884208	0.983264	-0.30967	-0.34886	-0.0432235	-0.0463203	-0.706324	-0.50344	-0.0349027	0.000146859	0.694825	0.0431339	-0.128368	-0.312706	0.0661525	-0.0763542	0.000193719	-0.18059	-0.078338	0.272492	0.0132986	-0.640025	0.0285908	2.22325	1.5293	0.0946032	0.0292018	-0.865152	-0.242802	-0.216967	2.08848	2.17911	0.0811501	-0.0356415
2.51	-0.0890579	0.000421653	-0.107105	0.886149	0.981183	-0.30947	-0.336265	-0.0369098	-0.0270624	-0.821675	-0.477992	-0.0349027	0.000146859	0.64605	0.0373438	-0.128045	-0.252426	0.0629443	-0.0763542	0.000193719	-0.191026	-0.0663968	0.270546	-0.010828	-0.63498	0.0218791	2.21829	1.53389	0.0946032	0.0292018	-0.857891	-0.230951	-0.227865	2.09775	2.17635	0.0811501	-0.0356415
2.52	-0.0767052	-0.00928863	-0.107114	0.88795	0.978055	-0.309527	-0.319665	-0.0364906	-0.0165714	-0.944869	-0.45496	-0.0349027	0.000146859	0.603085	0.033856	-0.131031	-0.220274	0.0563111	-0.0763542	0.000193719	-0.202236	-0.0579329	0.26474	-0.0379797	-0.628707	0.015415	2.20934	1.5395	0.0946032	0.0292018	-0.848211	-0.22161	-0.238675	2.10636	2.17116	0.0811501	-0.0356415
2.53	-0.0640923	-0.014859	-0.104964	0.889467	0.973836	-0.309888	-0.298934	-0.0426318	-0.0152947	-1.07354	-0.435251	-0.0349027	0.000146859	0.568202	0.033943	-0.136097	-0.217353	0.0472072	-0.0763542	0.000193719	-0.213667	-0.0534374	0.254448	-0.0678688	-0.621142	0.00887534	2.19617	1.54724	0.0946032	0.0292018	-0.83578	-0.215512	-0.248711	2.1137	2.16464	0.0811501	-0.0356415
2.54	-0.0518247	-0.0159551	-0.100142	0.890555	0.968538	-0.310579	-0.273853	-0.0550424	-0.0221121	-1.20542	-0.418492	-0.0349027	0.000146859	0.54265	0.038587	-0.141621	-0.242585	0.0372731	-0.0763542	0.000193719	-0.225052	-0.0529958	0.239283	-0.100083	-0.612137	0.00187861	2.17846	1.55821	0.0946032	0.0292018	-0.819992	-0.213224	-0.257243	2.11891	2.15816	0.0811501	-0.0356415
